<?xml version="1.0" encoding="UTF-8" standalone="no"?>
<svg
   xmlns:dc="http://purl.org/dc/elements/1.1/"
   xmlns:cc="http://creativecommons.org/ns#"
   xmlns:rdf="http://www.w3.org/1999/02/22-rdf-syntax-ns#"
   xmlns:svg="http://www.w3.org/2000/svg"
   xmlns="http://www.w3.org/2000/svg"
   xmlns:sodipodi="http://sodipodi.sourceforge.net/DTD/sodipodi-0.dtd"
   xmlns:inkscape="http://www.inkscape.org/namespaces/inkscape"
   version="1.0"
   width="732.000000pt"
   height="531.000000pt"
   viewBox="0 0 732.000000 531.000000"
   preserveAspectRatio="xMidYMid meet"
   id="svg26"
   sodipodi:docname="Frog.svg"
   inkscape:version="1.0.1 (3bc2e813f5, 2020-09-07)">
  <defs
     id="defs30" />
  <sodipodi:namedview
     pagecolor="#ffffff"
     bordercolor="#666666"
     borderopacity="1"
     objecttolerance="10"
     gridtolerance="10"
     guidetolerance="10"
     inkscape:pageopacity="0"
     inkscape:pageshadow="2"
     inkscape:window-width="725"
     inkscape:window-height="480"
     id="namedview28"
     showgrid="false"
     inkscape:zoom="1.244877"
     inkscape:cx="488"
     inkscape:cy="354"
     inkscape:window-x="0"
     inkscape:window-y="720"
     inkscape:window-maximized="0"
     inkscape:current-layer="svg26" />
  <metadata
     id="metadata2">
Created by potrace 1.10, written by Peter Selinger 2001-2011
<rdf:RDF>
  <cc:Work
     rdf:about="">
    <dc:format>image/svg+xml</dc:format>
    <dc:type
       rdf:resource="http://purl.org/dc/dcmitype/StillImage" />
    <dc:title></dc:title>
  </cc:Work>
</rdf:RDF>
</metadata>
  <g
     transform="translate(0.000000,531.000000) scale(0.100000,-0.100000)"
     fill="#000000"
     stroke="none"
     id="g24">
    <path
       d="M4299 4884 c-25 -8 -72 -36 -105 -63 -77 -65 -191 -144 -229 -159 -65 -26 -241 -52 -356 -52 -223 0 -392 54 -504 162 -22 21 -64 55 -94 76 -52 36 -56 37 -145 37 -94 0 -112 -5 -232 -62 -101 -49 -205 -165 -217 -243 -3 -19 -10 -52 -15 -74 -7 -25 -7 -63 -1 -110 30 -230 32 -278 16 -421 -12 -107 -13 -141 -4 -147 32 -20 134 14 346 114 155 73 393 134 616 158 103 11 386 11 490 0 225 -24 470 -90 650 -174 152 -71 185 -85 238 -97 50 -11 60 -10 73 3 12 12 13 23 4 59 -17 76 -23 287 -10 384 31 232 20 317 -59 423 -28 38 -133 122 -152 122 -7 0 -20 6 -28 13 -21 17 -92 43 -159 56 -63 13 -64 13 -123 -5z m-1413 -97 c38 -41 64 -119 64 -191 0 -155 -113 -321 -264 -390 -46 -22 -148 -25 -171 -6 -44 37 -71 101 -90 217 -11 71 33 205 92 277 31 37 108 96 125 96 8 0 19 5 25 11 18 18 73 28 132 25 48 -3 58 -7 87 -39z m1693 11 c23 -13 51 -28 63 -34 30 -18 104 -98 123 -136 9 -18 25 -66 35 -106 18 -68 18 -78 4 -147 -37 -179 -117 -230 -257 -164 -82 40 -100 52 -144 98 -95 99 -135 253 -99 388 16 60 34 88 73 115 38 26 142 19 202 -14z"
       id="path4" />
    <path
       d="M2663 4730 c-36 -14 -91 -81 -123 -148 -30 -62 -35 -102 -24 -174 6 -34 10 -38 36 -38 37 0 111 68 144 132 29 57 43 182 25 216 -13 24 -23 26 -58 12z"
       id="path6" />
    <path
       d="M4512 4693 c-12 -44 4 -147 32 -201 37 -72 121 -134 159 -119 17 6 30 105 21 145 -23 92 -121 212 -174 212 -22 0 -29 -6 -38 -37z"
       id="path8" />
    <path
       d="M3470 4048 c-179 -13 -319 -36 -440 -73 -30 -9 -72 -21 -93 -26 -21 -5 -45 -13 -55 -18 -9 -5 -37 -17 -62 -27 -25 -9 -86 -36 -135 -60 -115 -54 -197 -78 -246 -71 -23 3 -42 0 -47 -7 -17 -20 11 -205 45 -304 16 -46 60 -82 99 -82 11 0 43 -7 70 -15 27 -9 65 -21 84 -26 19 -6 53 -19 75 -29 22 -10 47 -21 55 -24 8 -4 29 -15 45 -26 17 -11 40 -24 53 -30 33 -15 29 -42 -5 -34 -16 4 -32 10 -38 14 -24 19 -147 65 -229 86 -108 29 -212 31 -274 5 -52 -21 -122 -87 -147 -139 -10 -20 -22 -45 -26 -54 -10 -20 -41 -113 -58 -173 -74 -265 -80 -677 -16 -1125 30 -214 37 -308 33 -431 -4 -88 -10 -135 -22 -157 -9 -17 -16 -38 -16 -46 0 -33 -75 -139 -151 -213 -87 -84 -109 -122 -109 -187 1 -95 72 -161 172 -159 49 2 65 7 98 33 21 17 48 45 58 63 20 33 65 163 97 277 21 76 40 110 60 110 12 0 15 -18 15 -95 0 -98 -21 -217 -59 -330 -39 -114 -23 -205 44 -264 33 -28 41 -31 107 -31 85 0 128 22 158 81 24 46 27 160 6 235 -35 124 -49 206 -50 286 -1 82 1 89 26 114 l26 27 34 -21 c59 -36 145 -157 215 -302 89 -183 193 -246 308 -189 47 23 91 84 101 137 14 74 -48 169 -142 217 -107 54 -274 207 -274 250 0 15 6 17 46 11 41 -5 194 -77 234 -110 8 -7 41 -25 73 -41 146 -72 287 -5 287 136 0 44 -5 59 -28 84 -61 68 -64 70 -206 76 -139 6 -200 20 -287 63 -141 71 -224 176 -269 341 -27 97 -49 293 -55 480 -12 390 -41 543 -120 628 -45 49 -57 66 -51 76 10 15 67 -27 108 -79 32 -42 60 -102 86 -190 16 -51 40 -320 46 -515 12 -352 62 -521 189 -631 50 -43 102 -67 189 -88 109 -25 121 -26 528 -26 368 -1 404 0 483 19 127 31 195 67 254 134 29 33 93 155 93 178 0 5 6 31 14 57 22 74 37 219 46 457 9 224 24 384 40 420 5 11 12 31 15 45 6 23 31 77 59 126 17 32 84 94 101 94 27 0 23 -16 -15 -58 -33 -38 -66 -93 -92 -157 -18 -45 -37 -242 -43 -440 -13 -446 -63 -645 -192 -773 -105 -104 -252 -162 -410 -162 -108 0 -153 -12 -198 -51 -79 -69 -60 -205 34 -253 87 -45 173 -21 371 104 34 21 97 49 132 58 48 13 69 -6 45 -40 -41 -62 -162 -163 -273 -229 -68 -40 -104 -76 -119 -120 -28 -79 -13 -138 52 -201 61 -60 157 -62 227 -7 21 17 116 150 116 164 0 6 109 192 135 231 31 46 85 94 107 94 9 0 26 -13 37 -29 32 -45 29 -164 -9 -316 -38 -153 -41 -261 -7 -320 49 -88 175 -110 257 -45 72 57 86 155 41 282 -56 159 -78 408 -35 408 17 0 36 -41 60 -125 53 -189 71 -234 117 -291 39 -47 82 -67 145 -67 61 0 92 18 134 79 55 78 33 150 -78 259 -92 91 -141 163 -169 250 -17 51 -20 87 -20 245 0 171 11 289 45 506 17 107 32 455 26 594 -10 216 -58 428 -131 583 -29 61 -108 157 -129 157 -7 0 -28 7 -46 16 -25 13 -51 15 -119 11 -86 -5 -208 -31 -226 -48 -5 -5 -15 -9 -23 -9 -7 0 -39 -12 -70 -27 -66 -31 -125 -53 -129 -49 -3 3 36 44 59 61 16 12 145 75 154 75 3 0 20 6 37 14 18 8 66 22 107 31 115 26 140 41 161 100 27 79 41 154 42 235 l2 75 -59 -3 c-63 -4 -82 2 -221 71 -44 22 -91 43 -105 47 -14 5 -50 18 -80 30 -61 24 -116 40 -235 69 -140 34 -185 41 -314 51 -216 17 -243 17 -361 8z"
       id="path10" />
    <path
       d="M1175 2873 c-131 -23 -211 -73 -269 -167 -29 -47 -27 -199 3 -285 63 -180 148 -308 326 -486 173 -174 300 -262 558 -388 75 -37 137 -71 137 -76 0 -14 -23 -28 -60 -36 -33 -7 -57 -16 -140 -52 -19 -8 -48 -21 -65 -27 -112 -47 -329 -169 -382 -215 -7 -6 -15 -11 -18 -11 -5 0 -64 -39 -75 -50 -10 -10 -136 -68 -180 -83 -40 -14 -92 -22 -210 -32 -117 -10 -181 -39 -210 -95 -36 -71 -19 -135 50 -181 84 -56 206 -29 388 88 114 72 328 171 451 209 55 16 238 48 374 64 128 15 151 24 178 68 74 125 87 346 39 642 -5 30 -16 116 -25 190 -22 181 -18 171 -72 211 -105 77 -335 202 -413 223 -34 10 -90 39 -90 47 0 16 32 16 91 0 35 -9 74 -22 86 -29 12 -7 27 -12 33 -12 21 0 163 -75 253 -133 93 -61 87 -67 87 84 0 74 5 201 10 283 9 119 8 152 -2 161 -12 11 -120 36 -298 70 -197 37 -411 44 -555 18z"
       id="path12" />
    <path
       d="M5635 2875 c-108 -13 -161 -23 -280 -50 -33 -8 -77 -17 -97 -21 -20 -3 -45 -15 -54 -25 -16 -18 -17 -26 -5 -82 7 -34 15 -156 18 -272 2 -115 6 -211 7 -213 2 -1 41 21 88 51 173 108 413 206 440 179 15 -15 -11 -36 -62 -52 -38 -12 -49 -17 -130 -54 -95 -44 -234 -127 -339 -203 -8 -6 -30 -141 -36 -228 -4 -49 -11 -106 -15 -125 -5 -19 -16 -111 -25 -205 -18 -186 -13 -259 27 -379 38 -116 59 -129 228 -147 163 -17 307 -46 430 -86 94 -31 218 -92 355 -174 167 -99 239 -129 314 -129 55 0 101 20 134 59 52 62 42 138 -27 198 -37 33 -44 35 -239 53 -101 10 -126 17 -217 59 -46 22 -184 102 -190 111 -3 4 -17 13 -31 21 -15 8 -76 43 -135 79 -169 102 -342 181 -426 196 -20 3 -45 12 -54 18 -20 15 -11 36 14 36 21 0 143 62 262 133 192 114 295 191 399 296 97 100 211 232 211 246 0 4 11 21 24 38 31 43 81 149 106 228 26 84 28 227 3 272 -35 64 -119 137 -157 137 -8 0 -27 6 -43 14 -71 36 -293 45 -498 21z"
       id="path14" />
    <path
       d="M5715 1456 c22 -14 51 -26 65 -26 24 -1 92 -22 155 -50 17 -7 44 -18 60 -25 17 -7 46 -20 65 -28 19 -9 53 -23 75 -32 22 -9 49 -20 60 -26 102 -46 248 -61 381 -38 89 15 99 25 99 96 0 65 -27 116 -67 129 -51 16 -155 6 -255 -25 -128 -40 -220 -41 -383 -5 -63 14 -144 29 -180 33 -36 5 -76 12 -90 16 -18 5 -13 -1 15 -19z"
       id="path16" />
    <path
       d="M640 1458 c-60 -15 -95 -105 -74 -185 10 -37 57 -48 209 -48 132 0 145 2 232 32 51 18 100 37 110 42 35 17 128 59 178 78 91 36 120 45 159 52 22 3 41 12 44 19 5 15 -84 17 -123 2 -61 -23 -224 -50 -304 -50 -67 0 -108 7 -181 29 -106 32 -198 43 -250 29z"
       id="path18" />
    <path
       d="M1678 1445 c-2 -3 -31 -9 -64 -14 -78 -13 -200 -50 -279 -85 -34 -16 -136 -61 -180 -80 -16 -8 -50 -21 -75 -31 -25 -9 -56 -22 -70 -27 -78 -32 -249 -46 -330 -27 -74 17 -181 15 -217 -4 -46 -25 -83 -83 -83 -132 0 -63 35 -104 118 -138 l43 -17 42 43 c52 52 95 67 222 73 133 7 246 46 390 132 61 37 112 70 113 74 2 4 7 8 12 8 5 0 37 19 72 42 63 43 79 52 147 86 67 35 106 51 131 57 14 3 36 15 50 25 l25 20 -31 0 c-17 0 -33 -2 -36 -5z"
       id="path20" />
    <path
       d="M5525 1425 c22 -13 47 -25 55 -25 28 0 327 -163 350 -190 3 -3 27 -19 54 -35 27 -17 60 -38 75 -47 36 -24 140 -74 192 -93 24 -9 82 -18 129 -21 47 -3 118 -12 158 -21 62 -13 78 -21 115 -58 l42 -43 45 15 c71 24 120 80 120 138 0 40 -35 97 -75 124 -30 21 -48 24 -105 23 -38 0 -97 -6 -132 -13 -35 -6 -83 -11 -108 -11 -51 1 -170 22 -185 33 -5 4 -26 10 -45 14 -19 4 -41 11 -50 16 -8 5 -37 18 -65 29 -27 12 -63 27 -80 35 -141 62 -171 74 -310 118 -50 16 -162 37 -200 37 -15 0 -9 -7 20 -25z"
       id="path22" />
  </g>
</svg>
