<?xml version="1.0" encoding="UTF-8" standalone="no"?>
<svg
   xmlns:dc="http://purl.org/dc/elements/1.1/"
   xmlns:cc="http://creativecommons.org/ns#"
   xmlns:rdf="http://www.w3.org/1999/02/22-rdf-syntax-ns#"
   xmlns:svg="http://www.w3.org/2000/svg"
   xmlns="http://www.w3.org/2000/svg"
   xmlns:sodipodi="http://sodipodi.sourceforge.net/DTD/sodipodi-0.dtd"
   xmlns:inkscape="http://www.inkscape.org/namespaces/inkscape"
   version="1.0"
   width="980.000000pt"
   height="938.000000pt"
   viewBox="0 0 980.000000 938.000000"
   preserveAspectRatio="xMidYMid meet"
   id="svg8"
   sodipodi:docname="scorpion.svg"
   inkscape:version="1.0.1 (3bc2e813f5, 2020-09-07)">
  <defs
     id="defs12" />
  <sodipodi:namedview
     pagecolor="#ffffff"
     bordercolor="#666666"
     borderopacity="1"
     objecttolerance="10"
     gridtolerance="10"
     guidetolerance="10"
     inkscape:pageopacity="0"
     inkscape:pageshadow="2"
     inkscape:window-width="2100"
     inkscape:window-height="1234"
     id="namedview10"
     showgrid="false"
     inkscape:zoom="0.80597015"
     inkscape:cx="653.33333"
     inkscape:cy="625.33333"
     inkscape:window-x="-9"
     inkscape:window-y="711"
     inkscape:window-maximized="1"
     inkscape:current-layer="svg8" />
  <metadata
     id="metadata2">
Created by potrace 1.16, written by Peter Selinger 2001-2019
<rdf:RDF>
  <cc:Work
     rdf:about="">
    <dc:format>image/svg+xml</dc:format>
    <dc:type
       rdf:resource="http://purl.org/dc/dcmitype/StillImage" />
    <dc:title></dc:title>
  </cc:Work>
</rdf:RDF>
</metadata>
  <g
     transform="translate(0.000000,938.000000) scale(0.100000,-0.100000)"
     fill="#000000"
     stroke="none"
     id="g6">
    <path
       d="M6959 9344 c-13 -14 -51 -44 -84 -67 -114 -76 -427 -402 -558 -579 -112 -152 -152 -251 -212 -532 -42 -195 -45 -262 -17 -325 12 -25 17 -51 13 -60 -4 -9 -30 -63 -58 -121 -97 -196 -136 -367 -115 -493 13 -84 49 -162 93 -205 55 -53 106 -63 370 -71 262 -8 272 -10 303 -74 9 -19 16 -49 16 -66 0 -33 15 -42 24 -13 22 78 28 142 23 248 -9 227 -83 410 -230 572 -47 52 -49 57 -43 98 9 71 40 119 104 162 63 44 202 184 273 277 71 92 150 219 215 343 42 81 63 112 74 109 8 -3 51 -14 95 -26 101 -27 122 -43 164 -123 25 -50 35 -85 43 -153 14 -128 32 -172 132 -314 29 -42 29 -42 17 -107 -11 -52 -11 -76 0 -130 11 -57 11 -73 -3 -122 -9 -32 -26 -90 -37 -131 -25 -88 -26 -154 -6 -276 17 -105 19 -203 5 -240 -13 -34 -55 -72 -113 -101 -70 -36 -122 -87 -147 -147 -18 -42 -24 -79 -30 -189 -7 -155 -10 -160 -90 -205 -89 -51 -156 -97 -235 -163 -91 -76 -141 -111 -238 -164 -72 -40 -197 -149 -197 -172 0 -8 -33 -35 -72 -61 -40 -25 -104 -71 -143 -103 -101 -81 -125 -97 -171 -109 -56 -15 -90 -44 -112 -94 -20 -45 -198 -223 -242 -243 -14 -6 -54 -25 -90 -42 -36 -18 -71 -32 -78 -32 -22 0 -67 -27 -123 -75 -29 -25 -56 -42 -60 -38 -16 17 -29 134 -29 264 l0 138 -84 50 c-46 28 -89 51 -94 51 -6 0 -37 -18 -68 -40 -32 -22 -80 -47 -108 -55 -118 -35 -135 -71 -192 -412 l-27 -162 -91 -50 c-50 -27 -97 -51 -105 -53 -18 -4 -25 29 -46 212 -17 149 -42 258 -70 298 -15 20 -24 22 -114 22 l-97 0 -38 -117 c-60 -188 -60 -204 25 -572 22 -95 37 -181 34 -191 -8 -26 -40 -51 -57 -45 -22 9 -61 100 -123 284 -71 212 -92 250 -192 348 -108 106 -155 134 -236 140 -113 9 -186 -27 -206 -103 -5 -22 -19 -145 -31 -274 -26 -292 -37 -362 -62 -423 -24 -55 -19 -66 40 -85 85 -28 141 50 197 271 18 73 36 155 40 182 10 67 21 85 50 85 35 0 61 -47 75 -134 24 -148 43 -224 81 -322 43 -110 46 -137 24 -210 -8 -26 -12 -58 -9 -71 8 -32 -45 -63 -110 -63 -44 0 -52 4 -85 40 -20 22 -40 40 -44 40 -4 0 -51 20 -104 44 -54 24 -145 60 -203 81 -105 38 -139 57 -218 120 -62 50 -107 61 -190 47 -37 -6 -89 -14 -116 -18 -37 -4 -57 -14 -90 -44 -56 -51 -75 -58 -214 -70 -163 -15 -222 -27 -313 -62 l-79 -31 -60 16 c-88 25 -151 23 -178 -6 -12 -13 -22 -28 -22 -34 0 -6 -6 -16 -14 -22 -11 -9 -24 -6 -61 14 -55 29 -87 30 -282 15 -345 -29 -427 -62 -783 -322 -58 -42 -130 -89 -160 -105 -48 -26 -59 -38 -87 -94 -17 -35 -54 -131 -83 -213 -64 -187 -84 -226 -163 -323 -92 -114 -144 -193 -195 -302 -55 -115 -62 -174 -22 -179 37 -6 87 13 178 67 46 27 98 52 116 55 46 9 93 52 209 194 174 211 145 195 591 341 324 107 462 144 611 166 140 21 217 41 258 65 19 12 50 20 76 20 37 0 49 5 78 36 18 20 42 53 53 73 24 49 34 56 105 77 45 14 94 19 200 19 127 0 145 -2 190 -24 42 -20 74 -25 210 -32 189 -11 310 -30 414 -65 101 -34 139 -60 206 -144 63 -79 88 -99 137 -106 32 -6 47 -1 192 51 64 23 69 15 61 -104 l-6 -95 40 37 c23 20 46 37 52 37 7 0 10 -32 7 -95 -4 -116 8 -135 45 -73 34 58 61 81 86 73 30 -9 35 -39 16 -116 -10 -39 -15 -72 -13 -75 3 -2 26 23 51 56 26 33 52 60 58 60 18 0 3 -57 -32 -123 -17 -33 -28 -61 -26 -63 2 -3 53 19 113 48 l108 53 116 0 c107 0 118 2 162 28 26 15 56 27 68 27 30 0 75 -25 97 -55 15 -21 31 -28 85 -35 113 -16 259 -84 284 -131 7 -15 25 -61 38 -102 27 -87 83 -191 120 -226 25 -23 29 -24 148 -18 146 6 153 4 303 -85 61 -36 121 -68 133 -72 12 -4 58 -36 103 -71 l81 -64 -33 -21 c-90 -55 -135 -64 -299 -64 -114 0 -173 4 -225 17 -159 40 -408 41 -560 2 -71 -18 -248 -103 -459 -219 -425 -235 -576 -295 -1381 -546 -405 -127 -593 -207 -610 -261 -8 -25 8 -45 43 -53 24 -5 370 -34 777 -66 180 -14 478 -28 747 -36 l227 -7 7 -41 c9 -58 29 -94 82 -148 29 -30 42 -51 37 -57 -6 -5 -37 -16 -70 -26 -73 -21 -99 -43 -115 -101 -16 -55 -53 -88 -122 -107 -260 -74 -539 -83 -1024 -35 -121 12 -229 18 -239 14 -16 -6 -15 -9 11 -37 46 -49 258 -185 389 -250 150 -74 215 -89 430 -96 268 -8 519 27 860 122 182 50 283 70 440 85 293 29 387 88 466 294 45 119 66 145 196 244 65 50 156 130 203 178 183 189 219 220 291 261 77 44 203 98 252 108 28 6 61 36 207 191 36 38 113 102 172 142 108 73 128 94 194 207 19 32 60 92 92 133 52 68 56 78 60 135 5 81 -22 254 -49 317 -26 61 -83 113 -176 162 -67 35 -71 39 -92 96 -38 100 -99 142 -227 157 -95 11 -183 35 -277 76 -48 22 -108 44 -132 50 -25 6 -45 14 -45 18 0 17 90 92 134 112 59 26 96 21 148 -21 20 -17 46 -30 57 -30 10 0 42 18 69 39 55 44 119 81 140 81 32 0 99 48 198 142 l108 103 13 -95 c7 -52 17 -105 23 -118 14 -31 28 -22 148 89 102 94 158 129 208 129 57 0 533 -145 552 -168 6 -9 12 -27 12 -41 0 -14 10 -42 21 -61 12 -18 32 -68 45 -108 30 -92 86 -213 114 -250 12 -15 31 -29 43 -32 19 -5 22 -14 25 -70 3 -58 6 -68 41 -105 54 -58 128 -172 200 -305 65 -121 98 -160 134 -160 32 0 93 -35 166 -96 104 -86 172 -117 266 -122 45 -2 90 -3 100 0 15 2 -24 38 -155 144 -188 151 -236 199 -246 242 -27 124 -179 468 -256 580 -17 24 -40 76 -52 116 -13 40 -49 122 -81 182 -32 60 -81 152 -108 204 -26 52 -62 109 -78 126 -17 17 -32 46 -36 67 -7 43 -24 60 -78 77 -22 7 -60 24 -85 39 l-45 26 110 3 c163 5 405 -15 427 -35 10 -9 38 -80 63 -158 30 -97 56 -159 80 -191 19 -27 53 -83 76 -124 23 -41 67 -109 97 -150 72 -97 220 -245 253 -253 14 -4 52 -22 84 -42 46 -27 70 -35 107 -35 48 0 180 25 206 40 24 12 -176 123 -243 135 -22 4 -46 12 -53 18 -21 17 -50 79 -78 168 -27 85 -101 254 -196 444 -30 61 -77 162 -103 225 -72 171 -104 208 -250 292 -38 23 -88 52 -110 65 l-40 24 267 -3 266 -3 27 -25 c15 -14 58 -88 95 -165 38 -77 78 -148 89 -157 14 -12 21 -30 21 -52 0 -22 10 -46 30 -71 17 -21 30 -42 30 -48 0 -44 194 -263 267 -300 80 -41 333 -47 333 -7 0 8 -72 38 -158 65 l-53 17 -66 131 c-82 164 -130 275 -139 322 -3 20 -17 51 -30 71 -13 19 -24 44 -24 54 0 11 -13 35 -30 53 -47 54 -41 67 55 122 l50 29 -52 22 c-54 24 -73 46 -73 86 0 13 -22 86 -49 163 -26 77 -51 156 -55 176 -6 33 -136 254 -209 356 -36 51 -97 83 -158 83 -120 0 -394 -59 -503 -109 -54 -24 -68 -36 -92 -77 -64 -111 -336 -445 -500 -611 -68 -70 -86 -83 -113 -83 -21 0 -41 -9 -57 -25 -14 -14 -28 -25 -31 -25 -3 0 -22 15 -43 34 -20 18 -45 38 -55 43 -13 8 -16 17 -11 38 9 33 95 127 156 168 60 40 118 96 137 131 8 15 18 63 22 105 7 64 13 82 34 103 56 56 112 197 133 333 19 125 45 230 85 337 54 145 61 178 49 231 -5 26 -16 60 -24 75 -14 28 -40 143 -51 227 -4 27 -14 67 -22 88 -15 38 -15 38 17 79 43 53 95 173 116 266 19 84 11 148 -32 273 -14 41 -28 103 -31 139 -5 61 -2 73 42 185 67 169 84 260 94 516 7 168 12 224 26 252 15 32 15 38 1 66 -20 38 -20 65 -1 81 23 19 18 54 -14 93 -28 36 -28 37 -15 94 34 144 -2 328 -106 548 -47 100 -72 169 -86 235 -3 19 -15 51 -24 70 -24 46 -253 270 -310 303 -70 40 -181 73 -358 106 -208 39 -250 40 -283 5z m1913 -4742 c69 -71 73 -87 21 -78 -21 4 -123 9 -228 12 -104 3 -196 7 -204 10 -10 3 -2 18 30 50 59 61 70 66 164 73 126 10 150 2 217 -67z"
       id="path4" />
  </g>
</svg>
